<?xml version="1.0" encoding="utf-8"?>
<!-- Generator: Adobe Illustrator 19.0.0, SVG Export Plug-In . SVG Version: 6.00 Build 0)  -->
<svg version="1.0" id="Layer_1" xmlns="http://www.w3.org/2000/svg" xmlns:xlink="http://www.w3.org/1999/xlink" x="0px" y="0px"
	 width="1400px" height="980px" viewBox="0 0 1400 980" enable-background="new 0 0 1400 980" xml:space="preserve">
<g id="XMLID_534_">
	<rect id="XMLID_2_" x="17.4" y="12.2" fill="#89ABDA" width="1365.1" height="955.6"/>
	<g id="XMLID_796_" opacity="0.1">
		<rect id="XMLID_797_" x="25.6" y="12.2" width="78.2" height="16.8"/>
		<rect id="XMLID_798_" x="113.2" y="12.2" width="78.2" height="16.8"/>
		<rect id="XMLID_799_" x="200.8" y="12.2" width="78.2" height="16.8"/>
		<rect id="XMLID_800_" x="288.4" y="12.2" width="78.2" height="16.8"/>
		<rect id="XMLID_801_" x="377.2" y="12.2" width="78.2" height="16.8"/>
		<rect id="XMLID_802_" x="464.8" y="12.2" width="78.2" height="16.8"/>
		<rect id="XMLID_803_" x="552.4" y="12.2" width="78.2" height="16.8"/>
		<rect id="XMLID_804_" x="640" y="12.2" width="78.2" height="16.8"/>
		<rect id="XMLID_805_" x="729.3" y="12.2" width="78.2" height="16.8"/>
		<rect id="XMLID_806_" x="816.9" y="12.2" width="78.2" height="16.8"/>
		<rect id="XMLID_807_" x="904.5" y="12.2" width="78.2" height="16.8"/>
		<rect id="XMLID_808_" x="992.1" y="12.2" width="78.2" height="16.8"/>
		<rect id="XMLID_809_" x="1080.8" y="12.2" width="78.2" height="16.8"/>
		<rect id="XMLID_810_" x="1168.4" y="12.2" width="78.2" height="16.8"/>
		<rect id="XMLID_811_" x="1256" y="12.2" width="78.2" height="16.8"/>
		<rect id="XMLID_812_" x="1343.6" y="12.2" width="38.9" height="16.8"/>
		<rect id="XMLID_813_" x="17.4" y="38.3" width="41.8" height="41.1"/>
		<rect id="XMLID_814_" x="68.6" y="38.3" width="78.2" height="41.1"/>
		<rect id="XMLID_815_" x="156.2" y="38.3" width="78.2" height="41.1"/>
		<rect id="XMLID_816_" x="243.8" y="38.3" width="78.2" height="41.1"/>
		<rect id="XMLID_817_" x="332.6" y="38.3" width="78.2" height="41.1"/>
		<rect id="XMLID_818_" x="420.2" y="38.3" width="78.2" height="41.1"/>
		<rect id="XMLID_819_" x="507.8" y="38.3" width="78.2" height="41.1"/>
		<rect id="XMLID_820_" x="595.4" y="38.3" width="78.2" height="41.1"/>
		<rect id="XMLID_821_" x="684.6" y="38.3" width="78.2" height="41.1"/>
		<rect id="XMLID_822_" x="772.2" y="38.3" width="78.2" height="41.1"/>
		<rect id="XMLID_823_" x="859.8" y="38.3" width="78.2" height="41.1"/>
		<rect id="XMLID_824_" x="947.4" y="38.3" width="78.2" height="41.1"/>
		<rect id="XMLID_825_" x="1036.2" y="38.3" width="78.2" height="41.1"/>
		<rect id="XMLID_826_" x="1123.8" y="38.3" width="78.2" height="41.1"/>
		<rect id="XMLID_827_" x="1211.4" y="38.3" width="78.2" height="41.1"/>
		<rect id="XMLID_828_" x="1299" y="38.3" width="78.2" height="41.1"/>
		<rect id="XMLID_829_" x="25.6" y="93.6" width="78.2" height="41.1"/>
		<rect id="XMLID_830_" x="113.2" y="93.6" width="78.2" height="41.1"/>
		<rect id="XMLID_831_" x="200.8" y="93.6" width="78.2" height="41.1"/>
		<rect id="XMLID_832_" x="288.4" y="93.6" width="78.2" height="41.1"/>
		<rect id="XMLID_833_" x="377.2" y="93.6" width="78.2" height="41.1"/>
		<rect id="XMLID_834_" x="464.8" y="93.6" width="78.2" height="41.1"/>
		<rect id="XMLID_835_" x="552.4" y="93.6" width="78.2" height="41.1"/>
		<rect id="XMLID_836_" x="640" y="93.6" width="78.2" height="41.1"/>
		<rect id="XMLID_837_" x="729.3" y="93.6" width="78.2" height="41.1"/>
		<rect id="XMLID_838_" x="816.9" y="93.6" width="78.2" height="41.1"/>
		<rect id="XMLID_839_" x="904.5" y="93.6" width="78.2" height="41.1"/>
		<rect id="XMLID_840_" x="992.1" y="93.6" width="78.2" height="41.1"/>
		<rect id="XMLID_841_" x="1080.8" y="93.6" width="78.2" height="41.1"/>
		<rect id="XMLID_842_" x="1168.4" y="93.6" width="78.2" height="41.1"/>
		<rect id="XMLID_843_" x="1256" y="93.6" width="78.2" height="41.1"/>
		<rect id="XMLID_844_" x="1343.6" y="93.6" width="38.9" height="41.1"/>
		<rect id="XMLID_845_" x="17.4" y="144" width="41.8" height="41.1"/>
		<rect id="XMLID_846_" x="68.6" y="144" width="78.2" height="41.1"/>
		<rect id="XMLID_847_" x="156.2" y="144" width="78.2" height="41.1"/>
		<rect id="XMLID_848_" x="243.8" y="144" width="78.2" height="41.1"/>
		<rect id="XMLID_849_" x="332.6" y="144" width="78.2" height="41.1"/>
		<rect id="XMLID_850_" x="420.2" y="144" width="78.2" height="41.1"/>
		<rect id="XMLID_851_" x="507.8" y="144" width="78.2" height="41.1"/>
		<rect id="XMLID_852_" x="595.4" y="144" width="78.2" height="41.1"/>
		<rect id="XMLID_853_" x="684.6" y="144" width="78.2" height="41.1"/>
		<rect id="XMLID_854_" x="772.2" y="144" width="78.2" height="41.1"/>
		<rect id="XMLID_855_" x="859.8" y="144" width="78.2" height="41.1"/>
		<rect id="XMLID_856_" x="947.4" y="144" width="78.2" height="41.1"/>
		<rect id="XMLID_857_" x="1036.2" y="144" width="78.2" height="41.1"/>
		<rect id="XMLID_858_" x="1123.8" y="144" width="78.2" height="41.1"/>
		<rect id="XMLID_859_" x="1211.4" y="144" width="78.2" height="41.1"/>
		<rect id="XMLID_860_" x="1299" y="144" width="78.2" height="41.1"/>
		<rect id="XMLID_861_" x="25.6" y="199" width="78.2" height="41.1"/>
		<rect id="XMLID_862_" x="113.2" y="199" width="78.2" height="41.1"/>
		<rect id="XMLID_863_" x="200.8" y="199" width="78.2" height="41.1"/>
		<rect id="XMLID_864_" x="288.4" y="199" width="78.2" height="41.1"/>
		<rect id="XMLID_865_" x="377.2" y="199" width="78.2" height="41.1"/>
		<rect id="XMLID_866_" x="464.8" y="199" width="78.2" height="41.1"/>
		<rect id="XMLID_867_" x="552.4" y="199" width="78.2" height="41.1"/>
		<rect id="XMLID_868_" x="640" y="199" width="78.2" height="41.1"/>
		<rect id="XMLID_869_" x="729.3" y="199" width="78.2" height="41.1"/>
		<rect id="XMLID_870_" x="816.9" y="199" width="78.2" height="41.1"/>
		<rect id="XMLID_871_" x="904.5" y="199" width="78.2" height="41.1"/>
		<rect id="XMLID_872_" x="992.1" y="199" width="78.2" height="41.1"/>
		<rect id="XMLID_873_" x="1080.8" y="199" width="78.2" height="41.1"/>
		<rect id="XMLID_874_" x="1168.4" y="199" width="78.2" height="41.1"/>
		<rect id="XMLID_875_" x="1256" y="199" width="78.2" height="41.1"/>
		<rect id="XMLID_876_" x="1343.6" y="199" width="38.9" height="41.1"/>
		<rect id="XMLID_877_" x="17.4" y="249.3" width="41.8" height="41.1"/>
		<rect id="XMLID_878_" x="68.6" y="249.3" width="78.2" height="41.1"/>
		<rect id="XMLID_879_" x="156.2" y="249.3" width="78.2" height="41.1"/>
		<rect id="XMLID_880_" x="243.8" y="249.3" width="78.2" height="41.1"/>
		<rect id="XMLID_881_" x="332.6" y="249.3" width="78.2" height="41.1"/>
		<rect id="XMLID_882_" x="420.2" y="249.3" width="78.2" height="41.1"/>
		<rect id="XMLID_883_" x="507.8" y="249.3" width="78.2" height="41.1"/>
		<rect id="XMLID_884_" x="595.4" y="249.3" width="78.2" height="41.1"/>
		<rect id="XMLID_885_" x="684.6" y="249.3" width="78.2" height="41.1"/>
		<rect id="XMLID_886_" x="772.2" y="249.3" width="78.2" height="41.1"/>
		<rect id="XMLID_887_" x="859.8" y="249.3" width="78.2" height="41.1"/>
		<rect id="XMLID_888_" x="947.4" y="249.3" width="78.2" height="41.1"/>
		<rect id="XMLID_889_" x="1036.2" y="249.3" width="78.2" height="41.1"/>
		<rect id="XMLID_890_" x="1123.8" y="249.3" width="78.2" height="41.1"/>
		<rect id="XMLID_891_" x="1211.4" y="249.3" width="78.2" height="41.1"/>
		<rect id="XMLID_892_" x="1299" y="249.3" width="78.2" height="41.1"/>
		<rect id="XMLID_893_" x="25.6" y="304.7" width="78.2" height="41.1"/>
		<rect id="XMLID_894_" x="113.2" y="304.7" width="78.2" height="41.1"/>
		<rect id="XMLID_895_" x="200.8" y="304.7" width="78.2" height="41.1"/>
		<rect id="XMLID_896_" x="288.4" y="304.7" width="78.2" height="41.1"/>
		<rect id="XMLID_897_" x="377.2" y="304.7" width="78.2" height="41.1"/>
		<rect id="XMLID_898_" x="464.8" y="304.7" width="78.2" height="41.1"/>
		<rect id="XMLID_899_" x="552.4" y="304.7" width="78.2" height="41.1"/>
		<rect id="XMLID_900_" x="640" y="304.7" width="78.2" height="41.1"/>
		<rect id="XMLID_901_" x="729.3" y="304.7" width="78.2" height="41.1"/>
		<rect id="XMLID_902_" x="816.9" y="304.7" width="78.2" height="41.1"/>
		<rect id="XMLID_903_" x="904.5" y="304.7" width="78.2" height="41.1"/>
		<rect id="XMLID_904_" x="992.1" y="304.7" width="78.2" height="41.1"/>
		<rect id="XMLID_905_" x="1080.8" y="304.7" width="78.2" height="41.1"/>
		<rect id="XMLID_906_" x="1168.4" y="304.7" width="78.2" height="41.1"/>
		<rect id="XMLID_907_" x="1256" y="304.7" width="78.2" height="41.1"/>
		<rect id="XMLID_908_" x="1343.6" y="304.7" width="38.9" height="41.1"/>
		<rect id="XMLID_909_" x="17.4" y="355" width="41.8" height="41.1"/>
		<rect id="XMLID_910_" x="68.6" y="355" width="78.2" height="41.1"/>
		<rect id="XMLID_911_" x="156.2" y="355" width="78.2" height="41.1"/>
		<rect id="XMLID_912_" x="243.8" y="355" width="78.2" height="41.1"/>
		<rect id="XMLID_913_" x="332.6" y="355" width="78.2" height="41.1"/>
		<rect id="XMLID_914_" x="420.2" y="355" width="78.2" height="41.1"/>
		<rect id="XMLID_915_" x="507.8" y="355" width="78.2" height="41.1"/>
		<rect id="XMLID_916_" x="595.4" y="355" width="78.2" height="41.1"/>
		<rect id="XMLID_917_" x="684.6" y="355" width="78.2" height="41.1"/>
		<rect id="XMLID_918_" x="772.2" y="355" width="78.2" height="41.1"/>
		<rect id="XMLID_919_" x="859.8" y="355" width="78.2" height="41.1"/>
		<rect id="XMLID_920_" x="947.4" y="355" width="78.2" height="41.1"/>
		<rect id="XMLID_921_" x="1036.2" y="355" width="78.2" height="41.1"/>
		<rect id="XMLID_922_" x="1123.8" y="355" width="78.2" height="41.1"/>
		<rect id="XMLID_923_" x="1211.4" y="355" width="78.2" height="41.1"/>
		<rect id="XMLID_924_" x="1299" y="355" width="78.2" height="41.1"/>
		<rect id="XMLID_925_" x="25.6" y="410.8" width="78.2" height="41.1"/>
		<rect id="XMLID_926_" x="113.2" y="410.8" width="78.2" height="41.1"/>
		<rect id="XMLID_927_" x="200.8" y="410.8" width="78.2" height="41.1"/>
		<rect id="XMLID_928_" x="288.4" y="410.8" width="78.2" height="41.1"/>
		<rect id="XMLID_929_" x="377.2" y="410.8" width="78.2" height="41.1"/>
		<rect id="XMLID_930_" x="464.8" y="410.8" width="78.2" height="41.1"/>
		<rect id="XMLID_931_" x="552.4" y="410.8" width="78.2" height="41.1"/>
		<rect id="XMLID_932_" x="640" y="410.8" width="78.2" height="41.1"/>
		<rect id="XMLID_933_" x="729.3" y="410.8" width="78.2" height="41.1"/>
		<rect id="XMLID_934_" x="816.9" y="410.8" width="78.2" height="41.1"/>
		<rect id="XMLID_935_" x="904.5" y="410.8" width="78.2" height="41.1"/>
		<rect id="XMLID_936_" x="992.1" y="410.8" width="78.2" height="41.1"/>
		<rect id="XMLID_937_" x="1080.8" y="410.8" width="78.2" height="41.1"/>
		<rect id="XMLID_938_" x="1168.4" y="410.8" width="78.2" height="41.1"/>
		<rect id="XMLID_939_" x="1256" y="410.8" width="78.2" height="41.1"/>
		<rect id="XMLID_940_" x="1343.6" y="410.8" width="38.9" height="41.1"/>
		<rect id="XMLID_941_" x="17.4" y="461.2" width="41.8" height="41.1"/>
		<rect id="XMLID_942_" x="68.6" y="461.2" width="78.2" height="41.1"/>
		<rect id="XMLID_943_" x="156.2" y="461.2" width="78.2" height="41.1"/>
		<rect id="XMLID_944_" x="243.8" y="461.2" width="78.2" height="41.1"/>
		<rect id="XMLID_945_" x="332.6" y="461.2" width="78.2" height="41.1"/>
		<rect id="XMLID_946_" x="420.2" y="461.2" width="78.2" height="41.1"/>
		<rect id="XMLID_947_" x="507.8" y="461.2" width="78.2" height="41.1"/>
		<rect id="XMLID_948_" x="595.4" y="461.2" width="78.2" height="41.1"/>
		<rect id="XMLID_949_" x="684.6" y="461.2" width="78.2" height="41.1"/>
		<rect id="XMLID_950_" x="772.2" y="461.2" width="78.2" height="41.1"/>
		<rect id="XMLID_951_" x="859.8" y="461.2" width="78.2" height="41.1"/>
		<rect id="XMLID_952_" x="947.4" y="461.2" width="78.2" height="41.1"/>
		<rect id="XMLID_953_" x="1036.2" y="461.2" width="78.2" height="41.1"/>
		<rect id="XMLID_954_" x="1123.8" y="461.2" width="78.2" height="41.1"/>
		<rect id="XMLID_955_" x="1211.4" y="461.2" width="78.2" height="41.1"/>
		<rect id="XMLID_956_" x="1299" y="461.2" width="78.2" height="41.1"/>
		<rect id="XMLID_957_" x="25.6" y="516.5" width="78.2" height="41.1"/>
		<rect id="XMLID_958_" x="113.2" y="516.5" width="78.2" height="41.1"/>
		<rect id="XMLID_959_" x="200.8" y="516.5" width="78.2" height="41.1"/>
		<rect id="XMLID_960_" x="288.4" y="516.5" width="78.2" height="41.1"/>
		<rect id="XMLID_961_" x="377.2" y="516.5" width="78.2" height="41.1"/>
		<rect id="XMLID_962_" x="464.8" y="516.5" width="78.2" height="41.1"/>
		<rect id="XMLID_963_" x="552.4" y="516.5" width="78.2" height="41.1"/>
		<rect id="XMLID_964_" x="640" y="516.5" width="78.2" height="41.1"/>
		<rect id="XMLID_965_" x="729.3" y="516.5" width="78.2" height="41.1"/>
		<rect id="XMLID_966_" x="816.9" y="516.5" width="78.2" height="41.1"/>
		<rect id="XMLID_967_" x="904.5" y="516.5" width="78.2" height="41.1"/>
		<rect id="XMLID_968_" x="992.1" y="516.5" width="78.2" height="41.1"/>
		<rect id="XMLID_969_" x="1080.8" y="516.5" width="78.2" height="41.1"/>
		<rect id="XMLID_970_" x="1168.4" y="516.5" width="78.2" height="41.1"/>
		<rect id="XMLID_971_" x="1256" y="516.5" width="78.2" height="41.1"/>
		<rect id="XMLID_972_" x="1343.6" y="516.5" width="38.9" height="41.1"/>
		<rect id="XMLID_973_" x="17.4" y="566.9" width="41.8" height="41.1"/>
		<rect id="XMLID_974_" x="68.6" y="566.9" width="78.2" height="41.1"/>
		<rect id="XMLID_975_" x="156.2" y="566.9" width="78.2" height="41.1"/>
		<rect id="XMLID_976_" x="243.8" y="566.9" width="78.2" height="41.1"/>
		<rect id="XMLID_977_" x="332.6" y="566.9" width="78.2" height="41.1"/>
		<rect id="XMLID_978_" x="420.2" y="566.9" width="78.2" height="41.1"/>
		<rect id="XMLID_979_" x="507.8" y="566.9" width="78.2" height="41.1"/>
		<rect id="XMLID_980_" x="595.4" y="566.9" width="78.2" height="41.1"/>
		<rect id="XMLID_981_" x="684.6" y="566.9" width="78.2" height="41.1"/>
		<rect id="XMLID_982_" x="772.2" y="566.9" width="78.2" height="41.1"/>
		<rect id="XMLID_983_" x="859.8" y="566.9" width="78.2" height="41.1"/>
		<rect id="XMLID_984_" x="947.4" y="566.9" width="78.2" height="41.1"/>
		<rect id="XMLID_985_" x="1036.2" y="566.9" width="78.2" height="41.1"/>
		<rect id="XMLID_986_" x="1123.8" y="566.9" width="78.2" height="41.1"/>
		<rect id="XMLID_987_" x="1211.4" y="566.9" width="78.2" height="41.1"/>
		<rect id="XMLID_988_" x="1299" y="566.9" width="78.2" height="41.1"/>
		<rect id="XMLID_989_" x="25.6" y="621.8" width="78.2" height="41.1"/>
		<rect id="XMLID_990_" x="113.2" y="621.8" width="78.2" height="41.1"/>
		<rect id="XMLID_991_" x="200.8" y="621.8" width="78.2" height="41.1"/>
		<rect id="XMLID_992_" x="288.4" y="621.8" width="78.2" height="41.1"/>
		<rect id="XMLID_993_" x="377.2" y="621.8" width="78.2" height="41.1"/>
		<rect id="XMLID_994_" x="464.8" y="621.8" width="78.2" height="41.1"/>
		<rect id="XMLID_995_" x="552.4" y="621.8" width="78.2" height="41.1"/>
		<rect id="XMLID_996_" x="640" y="621.8" width="78.2" height="41.1"/>
		<rect id="XMLID_997_" x="729.3" y="621.8" width="78.2" height="41.1"/>
		<rect id="XMLID_998_" x="816.9" y="621.8" width="78.2" height="41.1"/>
		<rect id="XMLID_999_" x="904.5" y="621.8" width="78.2" height="41.1"/>
		<rect id="XMLID_1000_" x="992.1" y="621.8" width="78.2" height="41.1"/>
		<rect id="XMLID_1001_" x="1080.8" y="621.8" width="78.2" height="41.1"/>
		<rect id="XMLID_1002_" x="1168.4" y="621.8" width="78.2" height="41.1"/>
		<rect id="XMLID_1003_" x="1256" y="621.8" width="78.2" height="41.1"/>
		<rect id="XMLID_1004_" x="1343.6" y="621.8" width="38.9" height="41.1"/>
		<rect id="XMLID_1005_" x="17.4" y="672.2" width="41.8" height="41.1"/>
		<rect id="XMLID_1006_" x="68.6" y="672.2" width="78.2" height="41.1"/>
		<rect id="XMLID_1007_" x="156.2" y="672.2" width="78.2" height="41.1"/>
		<rect id="XMLID_1008_" x="243.8" y="672.2" width="78.2" height="41.1"/>
		<rect id="XMLID_1009_" x="332.6" y="672.2" width="78.2" height="41.1"/>
		<rect id="XMLID_1010_" x="420.2" y="672.2" width="78.2" height="41.1"/>
		<rect id="XMLID_1011_" x="507.8" y="672.2" width="78.2" height="41.1"/>
		<rect id="XMLID_1012_" x="595.4" y="672.2" width="78.2" height="41.1"/>
		<rect id="XMLID_1013_" x="684.6" y="672.2" width="78.2" height="41.1"/>
		<rect id="XMLID_1014_" x="772.2" y="672.2" width="78.2" height="41.1"/>
		<rect id="XMLID_1015_" x="859.8" y="672.2" width="78.2" height="41.1"/>
		<rect id="XMLID_1016_" x="947.4" y="672.2" width="78.2" height="41.1"/>
		<rect id="XMLID_1017_" x="1036.2" y="672.2" width="78.2" height="41.1"/>
		<rect id="XMLID_1018_" x="1123.8" y="672.2" width="78.2" height="41.1"/>
		<rect id="XMLID_1019_" x="1211.4" y="672.2" width="78.2" height="41.1"/>
		<rect id="XMLID_1020_" x="1299" y="672.2" width="78.2" height="41.1"/>
		<rect id="XMLID_1021_" x="25.6" y="727.5" width="78.2" height="41.1"/>
		<rect id="XMLID_1022_" x="113.2" y="727.5" width="78.2" height="41.1"/>
		<rect id="XMLID_1023_" x="200.8" y="727.5" width="78.2" height="41.1"/>
		<rect id="XMLID_1024_" x="288.4" y="727.5" width="78.2" height="41.1"/>
		<rect id="XMLID_1025_" x="377.2" y="727.5" width="78.2" height="41.1"/>
		<rect id="XMLID_1026_" x="464.8" y="727.5" width="78.2" height="41.1"/>
		<rect id="XMLID_1027_" x="552.4" y="727.5" width="78.2" height="41.1"/>
		<rect id="XMLID_1028_" x="640" y="727.5" width="78.2" height="41.1"/>
		<rect id="XMLID_1029_" x="729.3" y="727.5" width="78.2" height="41.1"/>
		<rect id="XMLID_1030_" x="816.9" y="727.5" width="78.2" height="41.1"/>
		<rect id="XMLID_1031_" x="904.5" y="727.5" width="78.2" height="41.1"/>
		<rect id="XMLID_1032_" x="992.1" y="727.5" width="78.2" height="41.1"/>
		<rect id="XMLID_1033_" x="1080.8" y="727.5" width="78.2" height="41.1"/>
		<rect id="XMLID_1034_" x="1168.4" y="727.5" width="78.2" height="41.1"/>
		<rect id="XMLID_1035_" x="1256" y="727.5" width="78.2" height="41.1"/>
		<rect id="XMLID_1036_" x="1343.6" y="727.5" width="38.9" height="41.1"/>
		<rect id="XMLID_1037_" x="17.4" y="777.9" width="41.8" height="41.1"/>
		<rect id="XMLID_1038_" x="68.6" y="777.9" width="78.2" height="41.1"/>
		<rect id="XMLID_1039_" x="156.2" y="777.9" width="78.2" height="41.1"/>
		<rect id="XMLID_1040_" x="243.8" y="777.9" width="78.2" height="41.1"/>
		<rect id="XMLID_1041_" x="332.6" y="777.9" width="78.2" height="41.1"/>
		<rect id="XMLID_1042_" x="420.2" y="777.9" width="78.2" height="41.1"/>
		<rect id="XMLID_1043_" x="507.8" y="777.9" width="78.2" height="41.1"/>
		<rect id="XMLID_1044_" x="595.4" y="777.9" width="78.2" height="41.1"/>
		<rect id="XMLID_1045_" x="684.6" y="777.9" width="78.2" height="41.1"/>
		<rect id="XMLID_1046_" x="772.2" y="777.9" width="78.2" height="41.1"/>
		<rect id="XMLID_1047_" x="859.8" y="777.9" width="78.2" height="41.1"/>
		<rect id="XMLID_1048_" x="947.4" y="777.9" width="78.2" height="41.1"/>
		<rect id="XMLID_1049_" x="1036.2" y="777.9" width="78.2" height="41.1"/>
		<rect id="XMLID_1050_" x="1123.8" y="777.9" width="78.2" height="41.1"/>
		<rect id="XMLID_1051_" x="1211.4" y="777.9" width="78.2" height="41.1"/>
		<rect id="XMLID_1052_" x="1299" y="777.9" width="78.2" height="41.1"/>
	</g>
	<rect id="XMLID_509_" x="114.2" y="429.9" fill="#092B2F" width="726.2" height="394.4"/>
	<rect id="XMLID_508_" x="119" y="429.9" opacity="0.2" fill="#092B2F" width="713.3" height="85.1"/>
	<rect id="XMLID_506_" x="118.8" y="314.7" fill="#7094BD" width="712.5" height="509.1"/>
	<rect id="XMLID_505_" x="96.3" y="308.3" fill="#5A7A97" width="22.5" height="516"/>
	<rect id="XMLID_503_" x="96.3" y="308.3" fill="#5A7A97" width="757" height="27"/>
	<rect id="XMLID_502_" x="118.8" y="332.1" fill="#1E404E" width="712.5" height="3.6"/>
	<g id="XMLID_486_">
		<rect id="XMLID_501_" x="118.8" y="370.6" fill="#7FA5D7" width="712.5" height="3.6"/>
		<rect id="XMLID_500_" x="118.8" y="406.1" fill="#7FA5D7" width="712.5" height="3.6"/>
		<rect id="XMLID_499_" x="118.8" y="442.1" fill="#7FA5D7" width="712.5" height="3.6"/>
		<rect id="XMLID_498_" x="118.8" y="483.6" fill="#7FA5D7" width="712.5" height="3.6"/>
		<rect id="XMLID_497_" x="118.8" y="519" fill="#7FA5D7" width="712.5" height="3.6"/>
		<rect id="XMLID_496_" x="118.8" y="555" fill="#7FA5D7" width="712.5" height="3.6"/>
		<rect id="XMLID_495_" x="118.8" y="595.7" fill="#7FA5D7" width="712.5" height="3.6"/>
		<rect id="XMLID_494_" x="118.8" y="631.1" fill="#7FA5D7" width="712.5" height="3.6"/>
		<rect id="XMLID_493_" x="118.8" y="667.2" fill="#7FA5D7" width="712.5" height="3.6"/>
		<rect id="XMLID_492_" x="118.8" y="706.7" fill="#7FA5D7" width="712.5" height="3.6"/>
		<rect id="XMLID_491_" x="118.8" y="742.1" fill="#7FA5D7" width="712.5" height="3.6"/>
		<rect id="XMLID_490_" x="118.8" y="778.2" fill="#7FA5D7" width="712.5" height="3.6"/>
	</g>
	<rect id="XMLID_489_" x="109.7" y="324.1" fill="#4B697E" width="9.1" height="500.2"/>
	<rect id="XMLID_487_" x="109.7" y="324.3" fill="#4B697E" width="730.6" height="10.9"/>
	<rect id="XMLID_504_" x="831.3" y="308.3" fill="#5A7A97" width="22.5" height="516"/>
	<rect id="XMLID_488_" x="831.3" y="324.1" fill="#4B697E" width="9.1" height="500.2"/>
	<rect id="XMLID_19_" x="17.4" y="824.3" fill="#476578" width="1365.1" height="143.5"/>
	<rect id="XMLID_510_" x="17.4" y="896" fill="#334F59" width="1365.1" height="71.7"/>
	<g id="XMLID_418_" opacity="0.58">
		<g id="XMLID_478_">
			<rect id="XMLID_485_" x="117.6" y="94.8" fill="#4E6789" width="78.5" height="105.7"/>
			<rect id="XMLID_483_" x="124.4" y="102.6" fill="#89C3EA" width="65.1" height="91.5"/>
			<g id="XMLID_480_">
				<polygon id="XMLID_482_" fill="#86D2F5" points="150.5,102.6 128.8,102.6 148.8,194 170.5,194 				"/>
				<polygon id="XMLID_481_" fill="#86D2F5" points="164.8,102.6 156.6,102.6 176.6,194 184.8,194 				"/>
			</g>
		</g>
		<g id="XMLID_468_">
			<rect id="XMLID_477_" x="301.7" y="94.8" fill="#4E6789" width="78.5" height="105.7"/>
			<rect id="XMLID_475_" x="308.5" y="102.6" fill="#89C3EA" width="65.1" height="91.5"/>
			<g id="XMLID_470_">
				<polygon id="XMLID_473_" fill="#86D2F5" points="334.6,102.6 312.9,102.6 332.9,194 354.6,194 				"/>
				<polygon id="XMLID_471_" fill="#86D2F5" points="348.9,102.6 340.7,102.6 360.7,194 368.9,194 				"/>
			</g>
		</g>
		<g id="XMLID_459_">
			<rect id="XMLID_467_" x="485.7" y="94.8" fill="#4E6789" width="78.5" height="105.7"/>
			<rect id="XMLID_465_" x="492.5" y="102.6" fill="#89C3EA" width="65.1" height="91.5"/>
			<g id="XMLID_460_" opacity="2.000000e-02">
				<polygon id="XMLID_462_" fill="#86D2F5" points="518.6,102.6 497,102.6 517,194 538.6,194 				"/>
				<polygon id="XMLID_461_" fill="#86D2F5" points="532.9,102.6 524.8,102.6 544.8,194 552.9,194 				"/>
			</g>
		</g>
		<g id="XMLID_449_">
			<rect id="XMLID_456_" x="669.8" y="94.8" fill="#4E6789" width="78.5" height="105.7"/>
			<rect id="XMLID_455_" x="676.6" y="102.6" fill="#89C3EA" width="65.1" height="91.5"/>
			<g id="XMLID_450_">
				<polygon id="XMLID_454_" fill="#86D2F5" points="702.7,102.6 681.1,102.6 701.1,194 722.7,194 				"/>
				<polygon id="XMLID_453_" fill="#86D2F5" points="717,102.6 708.8,102.6 728.8,194 737,194 				"/>
			</g>
		</g>
		<g id="XMLID_441_">
			<rect id="XMLID_448_" x="853.9" y="94.8" fill="#4E6789" width="78.5" height="105.7"/>
			<rect id="XMLID_447_" x="860.7" y="102.6" fill="#89C3EA" width="65.1" height="91.5"/>
			<g id="XMLID_442_">
				<polygon id="XMLID_444_" fill="#86D2F5" points="886.8,102.6 865.1,102.6 885.1,194 906.8,194 				"/>
				<polygon id="XMLID_443_" fill="#86D2F5" points="901.1,102.6 892.9,102.6 912.9,194 921.1,194 				"/>
			</g>
		</g>
		<g id="XMLID_431_">
			<rect id="XMLID_438_" x="1037.9" y="94.8" fill="#4E6789" width="78.5" height="105.7"/>
			<rect id="XMLID_437_" x="1044.8" y="102.6" fill="#89C3EA" width="65.1" height="91.5"/>
			<g id="XMLID_432_">
				<polygon id="XMLID_436_" fill="#86D2F5" points="1070.8,102.6 1049.2,102.6 1069.2,194 1090.9,194 				"/>
				<polygon id="XMLID_435_" fill="#86D2F5" points="1085.2,102.6 1077,102.6 1097,194 1105.2,194 				"/>
			</g>
		</g>
		<g id="XMLID_423_">
			<rect id="XMLID_430_" x="1222" y="94.8" fill="#4E6789" width="78.5" height="105.7"/>
			<rect id="XMLID_429_" x="1228.8" y="102.6" fill="#89C3EA" width="65.1" height="91.5"/>
			<g id="XMLID_424_">
				<polygon id="XMLID_426_" fill="#86D2F5" points="1254.9,102.6 1233.3,102.6 1253.3,194 1274.9,194 				"/>
				<polygon id="XMLID_425_" fill="#86D2F5" points="1269.2,102.6 1261.1,102.6 1281.1,194 1289.2,194 				"/>
			</g>
		</g>
	</g>
</g>
<g id="XMLID_511_">
	<ellipse id="XMLID_533_" opacity="0.2" cx="227.5" cy="852.2" rx="135" ry="14.9"/>
	<path id="XMLID_532_" fill="#E5B48B" d="M271.1,573.1c0,0-32.5,93.7,4.5,187.2l-35.3,15.4L230,709.9l-13.7,65.2l-25.2-8.8
		c0,0-5.5-107-5.5-207.4l8.2-36.2l83.1,5.7C276.9,528.4,269.5,549.1,271.1,573.1z"/>
	<path id="XMLID_531_" fill="#285880" d="M193.8,522.7l19.5,1.3l16.8,23.3l15.5-21.1l31.4,2.2c0,0-2,29.5-5.8,44.7
		c0,0,1.4,102.9,4.8,197.6l-35.7,4.9L230,709.9l-10.5,65.8l-38.1-6c8.8-59.1,4.1-154.9,4.1-210.8L193.8,522.7z"/>
	<polygon id="XMLID_530_" fill="#21292E" points="224.5,758.3 181.5,748.6 172.4,827.6 139.3,851.1 208.2,851.1 	"/>
	<polygon id="XMLID_529_" fill="#21292E" points="279.3,752.7 235.4,758.3 250,851.1 318.9,851.1 285.3,828.7 	"/>
	<path id="XMLID_527_" fill="#285880" d="M277.3,528.4c0,0,44.2,32.3,48.6,100.4c0,0,1.8,20.9-22.9,27c0,0,15.7-57.7-29.6-98.2
		C273.5,557.6,269.9,532.3,277.3,528.4z"/>
	<polygon id="XMLID_525_" fill="#C49A6C" points="262.8,548.4 343.5,562 292.8,695.7 219.6,678.5 	"/>
	<polygon id="XMLID_524_" fill="#285880" points="193.8,522.7 171.1,532.8 140.8,624.9 216.4,669.2 222.3,644.3 177,611.3 
		193.8,571.5 	"/>
	<polygon id="XMLID_523_" fill="#EEC19C" points="320.1,633.9 308.1,629.4 296.5,653.2 312.3,659.7 	"/>
	<polygon id="XMLID_522_" fill="#EEC19C" points="224.5,644.3 243.5,644.3 240.3,671.9 216.4,669.2 222.3,644.3 	"/>
	<path id="XMLID_521_" fill="#E5B48B" d="M213.3,524l3.1-26.2l29.4,13.1l-0.3,15.3C245.5,526.2,221.4,530,213.3,524z"/>
	<g id="XMLID_512_">
		<path id="XMLID_520_" fill="#EEC19C" d="M293.3,421.4v91.7l-44.6,10l-43.9-20.5l-21.8-69.7C182.9,432.9,252.8,409.8,293.3,421.4z"
			/>
		<polygon id="XMLID_519_" fill="#603913" points="205.6,428.3 211.2,462.1 202.8,447.3 193.1,450.5 195,462.1 209.3,480.1 
			204.7,502.6 182.9,432.9 		"/>
		<polygon id="XMLID_518_" fill="#285880" points="182.9,432.9 173.7,403.1 216.2,374.2 291.1,367.3 293.3,415.1 		"/>
		<polygon id="XMLID_517_" fill="#18374F" points="249.1,440.8 182.9,432.9 233.5,421 293.3,409.8 313.4,421.8 310.6,430.6 
			293.3,421.4 261.2,428.3 		"/>
		<polygon id="XMLID_516_" fill="#3676AB" points="281.9,385.8 227.5,392.7 230.2,408 283.8,401 		"/>
		<ellipse id="XMLID_515_" fill="#726658" cx="279" cy="452.6" rx="4.8" ry="4.9"/>
		<ellipse id="XMLID_514_" fill="#726658" cx="250.8" cy="455.7" rx="4.8" ry="4.9"/>
		<polygon id="XMLID_513_" fill="#FFFFFF" points="281.6,486.1 245.8,489.5 255.6,497.9 279,495.9 		"/>
	</g>
</g>
<g id="XMLID_44_">
	<path id="XMLID_45_" fill="none" d="M1082.7,461.4l-2.7-17l-29.7,3.5l10.5,8.8c6,5,6.8,13.9,1.8,19.9c-5,6-13.9,6.8-19.9,1.8
		l-19.5-16.2l-12,14.4c-0.8,1-1.8,1.8-2.9,2.4l11,10h62.5l-6.6-24.1L1082.7,461.4z"/>
	<path id="XMLID_55_" fill="none" d="M1021.9,424.4h15.3l52.7-7.1l49.1-35.7l-27.2-6.1v-91.1l-17.2,9.2l-2.8-8.7l20-11.9l0.2,0
		l1.5-31.7c-29.3,5.2-48.6,12.1-48.6,12.1l-63.3,154.1c0.2,0.2,0.4,0.3,0.7,0.5L1021.9,424.4z"/>
	<polygon id="XMLID_56_" fill="none" points="1093.8,459.4 1104.9,463.1 1149.7,456.8 1149.7,434.8 1144.1,419.1 1091,442.9 	"/>
	<path id="XMLID_57_" fill="none" d="M1006.4,448.1l-16.1-13.4L982,455l10.9,9.9c0.4-0.8,0.9-1.7,1.5-2.4L1006.4,448.1z"/>
	<polygon id="XMLID_58_" fill="none" points="1104.9,486.2 1098.6,487.5 1098.9,488.9 1114.2,488.9 1120.8,486.2 	"/>
	<path id="XMLID_59_" fill="none" d="M1306.4,788.4h-278.9c-12.8,21.5-31.8,39-54.6,49.9c154.4,0.5,289.3,2.9,376.5,6.3
		C1327.7,833.4,1311.6,812.9,1306.4,788.4z"/>
	<rect id="XMLID_60_" x="737.3" y="423.7" fill="none" width="8.4" height="156.5"/>
	<path id="XMLID_61_" fill="none" d="M1266.5,253.4c-31.8-13.7-65.8-17.9-96.7-17.6l18.4,1.7l42.2,28.7l-9.1,29.6l-21.5,68.7
		l30.1,17l2.8,84l-5.8,23.4h11.4c2.3-22.4,10.7-89.4,34.4-138.5L1266.5,253.4z"/>
	<path id="XMLID_62_" fill="#1A1A1A" d="M1272.7,350.4c-23.7,49.2-32.1,116.1-34.4,138.5h59.3v0h-16L1272.7,350.4z"/>
	<polygon id="XMLID_63_" fill="#285880" points="1230,381.6 1199.9,364.5 1199.7,365 1195,367.2 1195.3,367.1 1201.4,376.6 
		1164.8,397.4 1157.4,384.8 1156.1,385.4 1144.3,382.7 1149.7,416.6 1144.1,419.1 1149.7,434.8 1149.7,456.8 1184.3,400.2 
		1203.7,397.4 1219.2,406.8 1219.2,425.8 1178.6,486.2 1120.8,486.2 1114.2,488.9 1227,488.9 1232.8,465.5 	"/>
	<polygon id="XMLID_64_" fill="#E5B48B" points="1164.8,397.4 1201.4,376.6 1195.3,367.1 1195,367.2 1157.4,384.8 	"/>
	<path id="XMLID_65_" fill="#285880" d="M1139,381.5l-49.1,35.7l-52.7,7.1l3.2,15.4l9.8,8.2l29.7-3.5l-0.5-2.9
		c-4.7-1.3-8.1-5.6-8.1-10.7c0-6.1,4.9-11.1,11.1-11.1c6.1,0,11.1,4.9,11.1,11.1c0,3-1.2,5.8-3.2,7.8l0.7,4.3l53.1-23.8l5.6-2.5
		l-5.5-33.9L1139,381.5z"/>
	<polygon id="XMLID_66_" fill="#2E6794" points="1104.9,486.2 1120.8,486.2 1178.6,486.2 1219.2,425.8 1219.2,406.8 1203.7,397.4 
		1184.3,400.2 1149.7,456.8 1104.9,463.1 	"/>
	<polygon id="XMLID_67_" fill="#EEC19C" points="1021.9,424.4 1040.4,439.8 1037.2,424.4 	"/>
	<polygon id="XMLID_68_" points="1091.5,488.9 1098.9,488.9 1098.6,487.5 	"/>
	<path id="XMLID_69_" d="M1090.3,438.6c-2,2-4.8,3.3-7.8,3.3c-1,0-2-0.1-2.9-0.4l0.5,2.9l2.7,17l7.2-3.3l3.9,1.3l-2.8-16.5
		L1090.3,438.6z"/>
	<path id="XMLID_70_" fill="#FDBA3E" d="M1090.3,438.6c2-2,3.2-4.8,3.2-7.8c0-6.1-4.9-11.1-11.1-11.1c-6.1,0-11.1,4.9-11.1,11.1
		c0,5.1,3.4,9.4,8.1,10.7c0.9,0.3,1.9,0.4,2.9,0.4C1085.5,441.9,1088.3,440.6,1090.3,438.6z"/>
	<polygon id="XMLID_71_" fill="#EEC19C" points="1104.9,486.2 1104.9,463.1 1093.8,459.4 1089.9,458.1 1082.7,461.4 1075.2,464.8 
		1081.8,488.9 1091.5,488.9 1098.6,487.5 	"/>
	<path id="XMLID_74_" fill="#EEC19C" d="M1195.1,342.7l14.2-17.9l1.8-11.5l-9.6-3.2l-8.3,14.7l4.3-26.1l-41.9,5l-12-12.4l-31.8-6.9
		v91.1l27.2,6.1l5.3,1.2l11.8,2.6l1.3-0.6l37.6-17.6l4.7-2.2L1195.1,342.7z M1153.9,313.6c2.6,0,4.8,2.2,4.8,4.9s-2.1,4.9-4.8,4.9
		s-4.8-2.2-4.8-4.9S1151.3,313.6,1153.9,313.6z M1121.2,315.4c0-2.7,2.1-4.9,4.8-4.9c2.6,0,4.8,2.2,4.8,4.9s-2.1,4.9-4.8,4.9
		C1123.3,320.3,1121.2,318.1,1121.2,315.4z M1123.4,348.6l35.5,3.4l-9.8,8.3l-23.2-1.9L1123.4,348.6z"/>
	<polygon id="XMLID_77_" fill="#603913" points="1193.3,324.8 1201.6,310.1 1211.2,313.3 1209.4,324.8 1195.1,342.7 1199.7,365 
		1199.9,364.5 1221.4,295.8 1197.6,298.7 	"/>
	<path id="XMLID_82_" fill="#285880" d="M1171.1,284l50.2,11.9l9.1-29.6l-42.2-28.7l-18.4-1.7c-20.7,0.2-40.1,2.6-56.3,5.4L1112,273
		L1171.1,284z M1177.1,255.9l-2.7,15.2l-53.2-6.9l1.8-15.2L1177.1,255.9z"/>
	<polygon id="XMLID_83_" fill="#18374F" points="1171.1,284 1112,273 1111.8,272.9 1091.8,284.8 1094.6,293.5 1111.8,284.4 
		1143.6,291.3 1155.6,303.6 1197.6,298.7 1221.4,295.8 	"/>
	<polygon id="XMLID_84_" fill="#3676AB" points="1174.4,271.1 1177.1,255.9 1123,249 1121.2,264.2 	"/>
	<ellipse id="XMLID_85_" fill="#726658" cx="1126" cy="315.4" rx="4.8" ry="4.9"/>
	<ellipse id="XMLID_86_" fill="#726658" cx="1153.9" cy="318.4" rx="4.8" ry="4.9"/>
	<polygon id="XMLID_87_" fill="#FFFFFF" points="1158.9,352 1123.4,348.6 1126,358.4 1149.2,360.3 	"/>
	<path id="XMLID_88_" d="M1011.3,476.5l12-14.4l-16.8-14l-12,14.4c-0.6,0.7-1.1,1.6-1.5,2.4l15.4,14
		C1009.4,478.3,1010.4,477.5,1011.3,476.5z"/>
	<path id="XMLID_89_" fill="#333333" d="M1023.2,462.1l19.5,16.2c6,5,14.9,4.1,19.9-1.8c5-6,4.1-14.9-1.8-19.9l-10.5-8.8l-9.8-8.2
		l-18.5-15.4l-19.7-16.4c-0.2-0.2-0.4-0.3-0.7-0.5l-11.2,27.3l16.1,13.4L1023.2,462.1z"/>
	<polygon id="XMLID_90_" fill="#1A1A1A" points="1008.4,478.9 992.9,464.9 982,455 968.1,488.9 931,488.9 931,488.9 1019.4,488.9 	
		"/>
	<path id="XMLID_91_" opacity="0.21" d="M1382.6,853.7c-11.9-0.7-23.1-3.9-33.1-9.1c-87.1-3.5-222.1-5.9-376.5-6.3
		c-16.6,8-35.3,12.4-55,12.4c-19.7,0-38.3-4.5-55-12.4c-270.2,0.8-481,7.5-481,15.6c0,8.7,239.7,15.7,535.5,15.7
		c199.1,0,372.9-3.2,465.1-7.9V853.7z"/>
	<path id="XMLID_94_" fill="#333333" d="M684.8,378.7c0-11.4-9.3-20.7-20.7-20.7H402.6c-11.4,0-20.7,9.3-20.7,20.7v251.4
		c0,11.4,9.3,20.7,20.7,20.7h15.5l266.6-21.2V378.7z M467.2,594.9c0,6.2-5,11.2-11.2,11.2s-11.2-5-11.2-11.2V409
		c0-6.2,5-11.2,11.2-11.2s11.2,5,11.2,11.2V594.9z M541.8,594.9c0,6.2-5,11.2-11.2,11.2s-11.2-5-11.2-11.2V409
		c0-6.2,5-11.2,11.2-11.2s11.2,5,11.2,11.2V594.9z M621.2,594.9c0,6.2-5,11.2-11.2,11.2h0c-6.2,0-11.2-5-11.2-11.2V409
		c0-6.2,5-11.2,11.2-11.2h0c6.2,0,11.2,5,11.2,11.2V594.9z"/>
	<path id="XMLID_97_" fill="#808080" d="M456,397.8c-6.2,0-11.2,5-11.2,11.2v185.9c0,6.2,5,11.2,11.2,11.2s11.2-5,11.2-11.2V409
		C467.2,402.8,462.1,397.8,456,397.8z"/>
	<path id="XMLID_98_" fill="#808080" d="M530.6,397.8c-6.2,0-11.2,5-11.2,11.2v185.9c0,6.2,5,11.2,11.2,11.2s11.2-5,11.2-11.2V409
		C541.8,402.8,536.8,397.8,530.6,397.8z"/>
	<path id="XMLID_99_" fill="#808080" d="M610,397.8L610,397.8c-6.2,0-11.2,5-11.2,11.2v185.9c0,6.2,5,11.2,11.2,11.2h0
		c6.2,0,11.2-5,11.2-11.2V409C621.2,402.8,616.1,397.8,610,397.8z"/>
	<polygon id="XMLID_100_" fill="#D09931" points="1382.6,623.8 1382.6,541.5 1347.3,541.5 1375.6,623.8 	"/>
	<path id="XMLID_101_" fill="#D09931" d="M1346.2,698.7c10.8-6.2,23.2-10.1,36.4-10.9v-25.2h-41.1L1346.2,698.7z"/>
	<path id="XMLID_102_" fill="#D09931" d="M918,595.8c70.4,0,127.4,57.1,127.4,127.4c0,23.8-6.5,46.1-17.9,65.2h278.9
		c-1.2-5.7-1.9-11.6-1.9-17.6c0-30.8,16.8-57.7,41.7-72.1l-4.7-36.1h-33.2l-34.4,87h-169.2l-68.9-208.1H807.7v101.7h11.1
		C842.1,614.3,877.9,595.8,918,595.8z"/>
	<path id="XMLID_103_" fill="#D09931" d="M807.7,788.4h0.7c-0.2-0.4-0.5-0.8-0.7-1.2V788.4z"/>
	<path id="XMLID_104_" fill="#333333" d="M818.7,643.3h-11.1h-24v13.2h-38.1v-13.2h-0.4v118.5h51.2c-3.8-12.2-5.9-25.1-5.9-38.5
		C790.5,693,801.1,665.1,818.7,643.3z"/>
	<path id="XMLID_105_" fill="#282828" d="M1304.5,770.8c0,6,0.7,11.9,1.9,17.6c5.3,24.5,21.4,45,43,56.2c10,5.2,21.2,8.4,33.1,9.1
		v-17.8c-33.7-2.6-60.3-30.7-60.3-65.1c0-34.4,26.6-62.5,60.3-65.1v-17.8c-13.2,0.8-25.5,4.7-36.4,10.9
		C1321.3,713.1,1304.5,740,1304.5,770.8z"/>
	<path id="XMLID_106_" fill="#1A1A1A" d="M1322.3,770.8c0,34.4,26.6,62.5,60.3,65.1v-21.1c-22.1-2.5-39.3-21.2-39.3-44
		c0-22.8,17.2-41.5,39.3-44v-21.1C1348.8,708.3,1322.3,736.4,1322.3,770.8z"/>
	<path id="XMLID_107_" fill="#333333" d="M1343.3,770.8c0,22.8,17.2,41.5,39.3,44v-12.4c-15.3-2.4-26.9-15.6-26.9-31.6
		c0-15.9,11.7-29.2,26.9-31.6v-12.4C1360.5,729.3,1343.3,748,1343.3,770.8z"/>
	<path id="XMLID_108_" fill="#7C7D80" d="M1355.6,770.8c0,15.9,11.7,29.2,26.9,31.6v-63.1C1367.3,741.6,1355.6,754.9,1355.6,770.8z"
		/>
	<polygon id="XMLID_109_" fill="#333333" points="783.7,656.4 783.7,643.3 783.7,286.2 745.7,286.2 745.7,371.2 745.7,423.7 
		745.7,580.1 745.7,632.6 745.7,643.3 745.7,656.4 	"/>
	<polygon id="XMLID_110_" fill="#1A1A1A" points="737.3,580.1 737.3,423.7 737.3,371.2 737.3,248.3 692.4,248.3 692.4,629 
		737.3,625.5 	"/>
	<polygon id="XMLID_111_" fill="#1A1A1A" points="737.3,625.5 692.4,629 684.8,629.6 418.1,650.8 363.4,655.1 363.4,670.4 
		737.3,670.4 737.3,632.6 737.3,632.6 	"/>
	<path id="XMLID_114_" fill="#282828" d="M972.9,838.3c22.7-10.9,41.7-28.3,54.6-49.9c11.4-19.1,17.9-41.3,17.9-65.2
		c0-70.4-57.1-127.4-127.4-127.4c-40.1,0-75.8,18.5-99.2,47.5c-17.7,21.9-28.2,49.7-28.2,80c0,13.4,2.1,26.4,5.9,38.5
		c2.8,8.9,6.6,17.5,11.3,25.4c0.2,0.4,0.5,0.8,0.7,1.2c12.8,21.5,31.8,39,54.6,49.8c16.6,8,35.3,12.4,55,12.4
		C937.6,850.7,956.3,846.2,972.9,838.3z M813.1,723.3c0-57.9,46.9-104.9,104.9-104.9c57.9,0,104.9,46.9,104.9,104.9
		c0,57.9-46.9,104.9-104.9,104.9C860,828.1,813.1,781.2,813.1,723.3z"/>
	<path id="XMLID_117_" fill="#1A1A1A" d="M1022.8,723.3c0-57.9-46.9-104.9-104.9-104.9c-57.9,0-104.9,46.9-104.9,104.9
		c0,57.9,46.9,104.9,104.9,104.9C975.9,828.1,1022.8,781.2,1022.8,723.3z M850,723.3c0-37.5,30.4-67.9,67.9-67.9
		c37.5,0,67.9,30.4,67.9,67.9s-30.4,67.9-67.9,67.9C880.4,791.2,850,760.8,850,723.3z"/>
	<path id="XMLID_120_" fill="#333333" d="M985.9,723.3c0-37.5-30.4-67.9-67.9-67.9c-37.5,0-67.9,30.4-67.9,67.9s30.4,67.9,67.9,67.9
		C955.5,791.2,985.9,760.8,985.9,723.3z M918,702.3c11.6,0,20.9,9.4,20.9,20.9c0,11.6-9.4,20.9-20.9,20.9
		c-11.6,0-20.9-9.4-20.9-20.9C897,711.7,906.4,702.3,918,702.3z"/>
	<circle id="XMLID_121_" fill="#7C7D80" cx="918" cy="723.3" r="20.9"/>
	<polygon id="XMLID_122_" fill="#FDBA3E" points="1035.8,541.5 1104.7,749.6 1273.9,749.6 1308.2,662.7 1341.5,662.7 1382.6,662.7 
		1382.6,623.8 1375.6,623.8 1347.3,541.5 1329.2,488.9 1297.6,488.9 1238.4,488.9 1227,488.9 1114.2,488.9 1098.9,488.9 
		1091.5,488.9 1081.8,488.9 1019.4,488.9 931,488.9 893.5,488.9 873.4,514.1 816.7,514.1 807.7,514.1 807.7,541.5 	"/>
	<path id="XMLID_123_" fill="#1A1A1A" d="M982,455l8.3-20.2l11.2-27.3l63.3-154.1c0,0,19.4-7,48.6-12.1c16.3-2.9,35.6-5.2,56.3-5.4
		c30.9-0.4,64.9,3.8,96.7,17.6l6.2,97l8.9,138.5h16h24.4l-26.7-262.5c-136.7-53.9-249.9,0-249.9,0L919.5,488.9H931h37.1L982,455z"/>
	<path id="XMLID_126_" fill="#BE1E2D" d="M865.4,428.3h-40.8l-8,85.8h56.7L865.4,428.3z M844.5,486.1c-7.9,0-14.4-6-14.4-13.5
		s6.4-13.5,14.4-13.5s14.4,6,14.4,13.5S852.4,486.1,844.5,486.1z"/>
	<ellipse id="XMLID_127_" fill="#BE787E" cx="844.5" cy="472.6" rx="14.4" ry="13.5"/>
	<polygon id="XMLID_128_" fill="#282828" points="737.3,580.1 737.3,625.5 737.3,632.6 737.3,632.6 745.7,632.6 745.7,580.1 	"/>
	<rect id="XMLID_129_" x="737.3" y="371.2" fill="#282828" width="8.4" height="52.4"/>
</g>
</svg>
